<?xml version="1.0" encoding="utf-8"?>
<?xml-stylesheet type="text/xsl" href="rss1.xsl"?>
<rss version="2.0" xmlns:atom="http://www.w3.org/2005/Atom" xmlns:content="http://purl.org/rss/1.0/modules/content/" xmlns:dc="http://purl.org/dc/elements/1.1/" xmlns:media="http://search.yahoo.com/mrss/">
<channel>
 <title>Getty</title>
 <link>http://www.gettyimg.com/</link>
 <atom:link href="http://www.gettyimg.com/" rel="self" type="application/rss+xml" />

 
                <item>
                <title><![CDATA[【Cinema Center】MOVIE - Scream VI 2023 2160p WEB-DL HDR10 DDP5.1 Atmos]]></title>
                <link><![CDATA[https://sharemania.us/threads/scream-vi-2023-2160p-web-dl-hdr10-ddp5-1-atmos.219740/]]></link>
                <description><![CDATA[<article>
<blockquote class="messageText SelectQuoteContainer ugc baseHtml">
<img src="https://images2.imgbox.com/30/fc/txA9DPyy_o.jpeg" class="bbCodeImage LbImage" alt="[​IMG]" data-url="https://images2.imgbox.com/30/fc/txA9DPyy_o.jpeg" style=""><br>
<div class="ToggleTriggerAnchor bbCodeSpoilerContainer">
<button type="button" class="button bbCodeSpoilerButton ToggleTrigger Tooltip JsOnly" data-target="> .SpoilerTarget"><span>Spoiler: <span class="SpoilerTitle">MediaInfo</span></span></button>
<div class="SpoilerTarget bbCodeSpoilerText">Video<br>
ID : 1<br>
Format : HEVC<br>
Format/Info : High Efficiency Video Coding<br>
Format profile : Main 10@L5@Main<br>
HDR format : SMPTE ST 2094 App 4, Version 1, HDR10+ Profile B compatible<br>
Codec ID : V_MPEGH/ISO/HEVC<br>
Duration : 2 h 2 min<br>
Bit rate : 14.3 Mb/s<br>
Width : 3 840 pixels<br>
Height : 2 160 pixels<br>
Display aspect ratio : 16:9<br>
Frame rate mode : Constant<br>
Frame rate : 23.976 (24000/1001) FPS<br>
Color space : YUV<br>
Chroma subsampling : 4:2:0 (Type 2)<br>
Bit depth : 10 bits<br>
Bits/(Pixel*Frame) : 0.072<br>
Stream size : 12.2 GiB (95%)<br>
Default : Yes<br>
Forced : No<br>
Color range : Full<br>
Color primaries : BT.2020<br>
Transfer characteristics : PQ<br>
Matrix coefficients : BT.2020 non-constant<br>
Mastering display color primaries : Display P3<br>
Mastering display luminance : min: 0.0001 cd/m2, max: 1000 cd/m2<br>
<br>
Audio<br>
ID : 2<br>
Format : E-AC-3 JOC<br>
Format/Info : Enhanced AC-3 with Joint Object Coding<br>
Commercial name : Dolby Digital Plus with Dolby Atmos<br>
Codec ID : A_EAC3<br>
Duration : 2 h 2 min<br>
Bit rate mode : Constant<br>
Bit rate : 768 kb/s<br>
Channel(s) : 6 channels<br>
Channel layout : L R C LFE Ls Rs<br>
Sampling rate : 48.0 kHz<br>
Frame rate : 31.250 FPS (1536 SPF)<br>
Compression mode : Lossy<br>
Stream size : 673 MiB (5%)<br>
Language : English<br>
Service kind : Complete Main<br>
Default : Yes<br>
Forced : No<br>
Complexity index : 16<br>
Number of dynamic objects : 15<br>
Bed channel count : 1 channel<br>
Bed channel configuration : LFE<br>
<br>
Text #1<br>
ID : 3<br>
Format : UTF-8<br>
Codec ID : S_TEXT/UTF8<br>
Codec ID/Info : UTF-8 Plain Text<br>
Duration : 2 h 1 min<br>
Bit rate : 64 b/s<br>
Frame rate : 0.255 FPS<br>
Count of elements : 1859<br>
Stream size : 57.6 KiB (0%)<br>
Language : English (US)<br>
Default : Yes<br>
Forced : No<br>
<br>
Text #2<br>
ID : 4<br>
Format : UTF-8<br>
Codec ID : S_TEXT/UTF8<br>
Codec ID/Info : UTF-8 Plain Text<br>
Duration : 2 h 1 min<br>
Bit rate : 73 b/s<br>
Frame rate : 0.294 FPS<br>
Count of elements : 2150<br>
Stream size : 65.4 KiB (0%)<br>
Title : SDH<br>
Language : English (US)<br>
Default : No<br>
Forced : No<br>
<br>
Text #3<br>
ID : 5<br>
Format : UTF-8<br>
Codec ID : S_TEXT/UTF8<br>
Codec ID/Info : UTF-8 Plain Text<br>
Duration : 2 h 1 min<br>
Bit rate : 55 b/s<br>
Frame rate : 0.225 FPS<br>
Count of elements : 1639<br>
Stream size : 49.4 KiB (0%)<br>
Language : German (DE)<br>
Default : No<br>
Forced : No<br>
<br>
Text #4<br>
ID : 6<br>
Format : UTF-8<br>
Codec ID : S_TEXT/UTF8<br>
Codec ID/Info : UTF-8 Plain Text<br>
Duration : 2 h 1 min<br>
Bit rate : 57 b/s<br>
Frame rate : 0.224 FPS<br>
Count of elements : 1633<br>
Stream size : 50.9 KiB (0%)<br>
Title : Latin American<br>
Language : Spanish (Latin America)<br>
Default : No<br>
Forced : No<br>
<br>
Text #5<br>
ID : 7<br>
Format : UTF-8<br>
Codec ID : S_TEXT/UTF8<br>
Codec ID/Info : UTF-8 Plain Text<br>
Duration : 2 h 1 min<br>
Bit rate : 60 b/s<br>
Frame rate : 0.226 FPS<br>
Count of elements : 1648<br>
Stream size : 53.5 KiB (0%)<br>
Language : Spanish (ES)<br>
Default : No<br>
Forced : No<br>
<br>
Text #6<br>
ID : 8<br>
Format : UTF-8<br>
Codec ID : S_TEXT/UTF8<br>
Codec ID/Info : UTF-8 Plain Text<br>
Duration : 2 h 1 min<br>
Bit rate : 58 b/s<br>
Frame rate : 0.229 FPS<br>
Count of elements : 1668<br>
Stream size : 51.7 KiB (0%)<br>
Title : Canadian<br>
Language : French (CA)<br>
Default : No<br>
Forced : No<br>
<br>
Text #7<br>
ID : 9<br>
Format : UTF-8<br>
Codec ID : S_TEXT/UTF8<br>
Codec ID/Info : UTF-8 Plain Text<br>
Duration : 2 h 1 min<br>
Bit rate : 50 b/s<br>
Frame rate : 0.209 FPS<br>
Count of elements : 1525<br>
Stream size : 45.3 KiB (0%)<br>
Language : French (FR)<br>
Default : No<br>
Forced : No<br>
<br>
Text #8<br>
ID : 10<br>
Format : UTF-8<br>
Codec ID : S_TEXT/UTF8<br>
Codec ID/Info : UTF-8 Plain Text<br>
Duration : 2 h 1 min<br>
Bit rate : 152 b/s<br>
Frame rate : 0.232 FPS<br>
Count of elements : 1691<br>
Stream size : 136 KiB (0%)<br>
Language : Hindi (IN)<br>
Default : No<br>
Forced : No<br>
<br>
Text #9<br>
ID : 11<br>
Format : UTF-8<br>
Codec ID : S_TEXT/UTF8<br>
Codec ID/Info : UTF-8 Plain Text<br>
Duration : 2 h 1 min<br>
Bit rate : 57 b/s<br>
Frame rate : 0.228 FPS<br>
Count of elements : 1664<br>
Stream size : 51.0 KiB (0%)<br>
Language : Italian (IT)<br>
Default : No<br>
Forced : No<br>
<br>
Text #10<br>
ID : 12<br>
Format : UTF-8<br>
Codec ID : S_TEXT/UTF8<br>
Codec ID/Info : UTF-8 Plain Text<br>
Duration : 2 h 1 min<br>
Bit rate : 46 b/s<br>
Frame rate : 0.242 FPS<br>
Count of elements : 1764<br>
Stream size : 41.0 KiB (0%)<br>
Language : Japanese (JP)<br>
Default : No<br>
Forced : No<br>
<br>
Text #11<br>
ID : 13<br>
Format : UTF-8<br>
Codec ID : S_TEXT/UTF8<br>
Codec ID/Info : UTF-8 Plain Text<br>
Duration : 2 h 1 min<br>
Bit rate : 44 b/s<br>
Frame rate : 0.174 FPS<br>
Count of elements : 1270<br>
Stream size : 39.8 KiB (0%)<br>
Language : Dutch (NL)<br>
Default : No<br>
Forced : No<br>
<br>
Text #12<br>
ID : 14<br>
Format : UTF-8<br>
Codec ID : S_TEXT/UTF8<br>
Codec ID/Info : UTF-8 Plain Text<br>
Duration : 2 h 1 min<br>
Bit rate : 51 b/s<br>
Frame rate : 0.227 FPS<br>
Count of elements : 1657<br>
Stream size : 46.1 KiB (0%)<br>
Title : Brazilian<br>
Language : Portuguese (BR)<br>
Default : No<br>
Forced : No<br>
<br>
Text #13<br>
ID : 15<br>
Format : UTF-8<br>
Codec ID : S_TEXT/UTF8<br>
Codec ID/Info : UTF-8 Plain Text<br>
Duration : 2 h 1 min<br>
Bit rate : 72 b/s<br>
Frame rate : 0.294 FPS<br>
Count of elements : 2149<br>
Stream size : 65.1 KiB (0%)<br>
Title : English [SDH]<br>
Language : English<br>
Default : No<br>
Forced : No<br>
<br>
Menu<br>
00:00:00.005 : en:Chapter 01<br>
00:07:47.931 : en:Chapter 02<br>
00:13:09.794 : en:Chapter 03<br>
00:19:13.074 : en:Chapter 04<br>
00:28:12.739 : en:Chapter 05<br>
00:36:32.197 : en:Chapter 06<br>
00:43:21.606 : en:Chapter 07<br>
00:49:38.775 : en:Chapter 08<br>
01:00:17.455 : en:Chapter 09<br>
01:11:12.694 : en:Chapter 10<br>
01:21:31.771 : en:Chapter 11<br>
01:24:06.593 : en:Chapter 12<br>
01:31:18.316 : en:Chapter 13<br>
01:35:11.716 : en:Chapter 14<br>
01:48:29.806 : en:Chapter 15<br>
01:56:24.197 : en:Chapter 16</div>
</div>
<div class="bbCodeBlock bbCodeVfcHH HiddenContent">
<div class="attribution type">Hidden Content:</div>
<blockquote>You must reply before you can see the hidden data contained here.</blockquote>
</div>
<div class="messageTextEndMarker">&nbsp;</div>
</blockquote>
</article>]]></description>
                <author><![CDATA[Cauã]]></author>
                </item>

                
                <item>
                <title><![CDATA[【HD Live Performances】WEB-RiP - ROSALÍA &amp; Tokischa - Linda (Live at Coachella Festival) (Weekend 2) (2023) 1080p YOUTUBE WEB-DL AAC2.0 VP9-ilya2129]]></title>
                <link><![CDATA[https://sharemania.us/threads/rosal%C3%8Da-tokischa-linda-live-at-coachella-festival-weekend-2-2023-1080p-youtube-web-dl-aac2-0-vp9-ilya2129.219741/]]></link>
                <description><![CDATA[<article>
<blockquote class="messageText SelectQuoteContainer ugc baseHtml">
<div style="text-align: center"><b><span style="font-size: 15px"><span style="color: #ff0000">ROSALÍA &amp; Tokischa - Linda (Live at Coachella Festival) (Weekend 2) (2023) 1080p YOUTUBE WEB-DL AAC2.0 VP9-ilya2129</span></span></b><br>
<br>
<img src="https://i.imgur.com/bXd6FFc.jpg" class="bbCodeImage LbImage" alt="[​IMG]" data-url="https://i.imgur.com/bXd6FFc.jpg" style=""> <br>
<br>
<div class="ToggleTriggerAnchor bbCodeSpoilerContainer">
<button type="button" class="button bbCodeSpoilerButton ToggleTrigger Tooltip JsOnly" data-target="> .SpoilerTarget"><span>Spoiler: <span class="SpoilerTitle">MediaInfo</span></span></button>
<div class="SpoilerTarget bbCodeSpoilerText">Format : Matroska<br>
Format version : Version 4<br>
File size : 62.3 MiB<br>
Duration : 2 min 43 s<br>
Overall bit rate : 3 194 kb/s<br>
Encoded date : UTC 2023-04-25 16:43:10<br>
Writing application : mkvmerge v75.0.0 ('Goliath') 64-bit<br>
Writing library : libebml v1.4.4 + libmatroska v1.7.1 / Lavf59.27.100<br>
<br>
Video<br>
ID : 1<br>
Format : VP9<br>
Codec ID : V_VP9<br>
Duration : 2 min 43 s<br>
Bit rate : 3 063 kb/s<br>
Width : 1 920 pixels<br>
Height : 1 080 pixels<br>
Display aspect ratio : 16:9<br>
Frame rate mode : Constant<br>
Frame rate : 30.000 FPS<br>
Color space : YUV<br>
Bits/(Pixel*Frame) : 0.049<br>
Stream size : 59.7 MiB (96%)<br>
Language : English<br>
Default : Yes<br>
Forced : No<br>
Color range : Limited<br>
Color primaries : BT.709<br>
Transfer characteristics : BT.709<br>
Matrix coefficients : BT.709<br>
<br>
Audio<br>
ID : 2<br>
Format : AAC LC<br>
Format/Info : Advanced Audio Codec Low Complexity<br>
Codec ID : A_AAC-2<br>
Duration : 2 min 43 s<br>
Bit rate : 128 kb/s<br>
Channel(s) : 2 channels<br>
Channel layout : L R<br>
Sampling rate : 44.1 kHz<br>
Frame rate : 43.066 FPS (1024 SPF)<br>
Compression mode : Lossy<br>
Delay relative to video : 12 ms<br>
Stream size : 2.50 MiB (4%)<br>
Default : Yes<br>
Forced : No</div>
</div><br>
<div class="bbCodeBlock bbCodeVfcHH HiddenContent">
<div class="attribution type">Hidden Content:</div>
<blockquote>You must reply before you can see the hidden data contained here.</blockquote>
</div></div>
<div class="messageTextEndMarker">&nbsp;</div>
</blockquote>
</article>]]></description>
                <author><![CDATA[limat]]></author>
                </item>

                
                <item>
                <title><![CDATA[【HD Live Performances】WEB-RiP - ROSALÍA - Coachella Music Festival (Weekend 2) (2023) 1080p YOUTUBE WEB-DL AAC2.0 VP9-ilya2129]]></title>
                <link><![CDATA[https://sharemania.us/threads/rosal%C3%8Da-coachella-music-festival-weekend-2-2023-1080p-youtube-web-dl-aac2-0-vp9-ilya2129.219739/]]></link>
                <description><![CDATA[<article>
<blockquote class="messageText SelectQuoteContainer ugc baseHtml">
<div style="text-align: center"><span style="font-size: 15px"><span style="color: #ff0000"><b>ROSALÍA - Coachella Music Festival (Weekend 2) (2023) 1080p YOUTUBE WEB-DL AAC2.0 VP9-ilya2129</b></span></span><br>
<br>
<img src="https://i.imgur.com/RrTmPe7.jpg" class="bbCodeImage LbImage" alt="[​IMG]" data-url="https://i.imgur.com/RrTmPe7.jpg" style=""><br>
<br>
<div class="ToggleTriggerAnchor bbCodeSpoilerContainer">
<button type="button" class="button bbCodeSpoilerButton ToggleTrigger Tooltip JsOnly" data-target="> .SpoilerTarget"><span>Spoiler: <span class="SpoilerTitle">MediaInfo</span></span></button>
<div class="SpoilerTarget bbCodeSpoilerText">Format : Matroska<br>
Format version : Version 4<br>
File size : 1.12 GiB<br>
Duration : 1 h 7 min<br>
Overall bit rate : 2 370 kb/s<br>
Encoded date : UTC 2023-04-25 16:42:18<br>
Writing application : mkvmerge v75.0.0 ('Goliath') 64-bit<br>
Writing library : libebml v1.4.4 + libmatroska v1.7.1 / Lavf59.27.100<br>
<br>
Video<br>
ID : 1<br>
Format : VP9<br>
Codec ID : V_VP9<br>
Duration : 1 h 7 min<br>
Bit rate : 2 240 kb/s<br>
Width : 1 920 pixels<br>
Height : 1 080 pixels<br>
Display aspect ratio : 16:9<br>
Frame rate mode : Constant<br>
Frame rate : 30.000 FPS<br>
Color space : YUV<br>
Bits/(Pixel*Frame) : 0.036<br>
Stream size : 1.06 GiB (94%)<br>
Language : English<br>
Default : Yes<br>
Forced : No<br>
Color range : Limited<br>
Color primaries : BT.709<br>
Transfer characteristics : BT.709<br>
Matrix coefficients : BT.709<br>
<br>
Audio<br>
ID : 2<br>
Format : AAC LC<br>
Format/Info : Advanced Audio Codec Low Complexity<br>
Codec ID : A_AAC-2<br>
Duration : 1 h 7 min<br>
Bit rate : 128 kb/s<br>
Channel(s) : 2 channels<br>
Channel layout : L R<br>
Sampling rate : 44.1 kHz<br>
Frame rate : 43.066 FPS (1024 SPF)<br>
Compression mode : Lossy<br>
Delay relative to video : 21 ms<br>
Stream size : 62.1 MiB (5%)<br>
Default : Yes<br>
Forced : No</div>
</div><br>
<div class="bbCodeBlock bbCodeVfcHH HiddenContent">
<div class="attribution type">Hidden Content:</div>
<blockquote>You must reply before you can see the hidden data contained here.</blockquote>
</div></div>
<div class="messageTextEndMarker">&nbsp;</div>
</blockquote>
</article>]]></description>
                <author><![CDATA[limat]]></author>
                </item>

                </channel></rss>